<svg aria-hidden="true" style="position:absolute;width:0;height:0;overflow:hidden" xmlns="http://www.w3.org/2000/svg"><defs><symbol id="icon-check" viewBox="0 0 34 32"><path fill="#2196f3" style="fill:var(--color1, #2196f3)" d="M4.267-.002h25.604a4.267 4.267 0 0 1 4.267 4.267v23.47a4.266 4.266 0 0 1-4.267 4.267H4.267A4.266 4.266 0 0 1 0 27.735V4.265A4.267 4.267 0 0 1 4.267-.002z"/><path fill="#fff" style="fill:var(--color2, #fff);stroke:var(--color2, #fff)" stroke="#fff" stroke-width=".427" d="m8.443 16.538-.147-.141-.147.139-2.057 1.95.162.156 7.606 7.254.147-.141L30.18 10.327l-.162-.154-2.029-1.935-.147.141L13.86 21.706l-5.417-5.168z"/></symbol></defs></svg>